# xmcd
#
# Track frame offsets: 
#        150
#        24506
#        53628
#        74459
#        115620
#        143475
#        198767
#        223225
#        257012
#
# Disc length: 3922 seconds
#
# Revision: 2
# Processed by: cddbd v1.5.2PL0 Copyright (c) Steve Scherf et al.
# Submitted via: ExactAudioCopy v0.99pb5
#
DISCID=7b0f5009
DTITLE=Matija Dedic - Visiting Bruxelles
DYEAR=2006
DGENRE=Jazz
TTITLE0=Solar
TTITLE1=On Green Dolphin Street
TTITLE2=San Matina
TTITLE3=Moment (solo piano)
TTITLE4=Family
TTITLE5=Decembar
TTITLE6=Razgovor s Konobarom
TTITLE7=Dora (solo piano)
TTITLE8=Last Exit
EXTD=
EXTT0=
EXTT1=
EXTT2=
EXTT3=
EXTT4=
EXTT5=
EXTT6=
EXTT7=
EXTT8=
PLAYORDER=
